<svg xmlns="http://www.w3.org/2000/svg" width="1600" height="1132" viewBox="0 0 1600 1132" role="img" aria-labelledby="title desc">
<title id="title">SamkhyaAcademy illustrative completion certificate</title><desc id="desc">Certificate design for fictional learner Alex Example, using the academy website logo. Illustrative certificate only.</desc>
<defs><linearGradient id="paper" x1="0" y1="0" x2="1" y2="1"><stop stop-color="#fffefa"/><stop offset=".55" stop-color="#ffffff"/><stop offset="1" stop-color="#f5f6fa"/></linearGradient><linearGradient id="gold" x1="0" y1="0" x2="1" y2=".3"><stop stop-color="#ae8552"/><stop offset=".45" stop-color="#d5b985"/><stop offset="1" stop-color="#9c7343"/></linearGradient><linearGradient id="blue" x1="0" y1="0" x2="1" y2="1"><stop stop-color="#101a43"/><stop offset="1" stop-color="#283e6b"/></linearGradient></defs>
<rect width="1600" height="1132" fill="url(#paper)"/>
<path d="M0 0H215L0 215Z M1600 1132H1385L1600 917Z" fill="url(#blue)"/>
<path d="M0 230L230 0 M1370 1132L1600 902" stroke="url(#gold)" stroke-width="5"/>
<rect x="48" y="48" width="1504" height="1036" fill="none" stroke="#bba37c" stroke-width="1.5"/>
<rect x="61" y="61" width="1478" height="1010" fill="none" stroke="#dfe2e9"/>
<path d="M80 140V80H140 M1460 80H1520V140 M80 992V1052H140 M1460 1052H1520V992" fill="none" stroke="#a98553" stroke-width="2"/>
<path d="M88 78Q88 190 78 220 M1512 1054Q1512 942 1522 912" fill="none" stroke="#afbdd1" stroke-width=".6" opacity=".25"/><path d="M95 78Q95 197 78 227 M1505 1054Q1505 935 1522 905" fill="none" stroke="#afbdd1" stroke-width=".6" opacity=".25"/><path d="M102 78Q102 204 78 234 M1498 1054Q1498 928 1522 898" fill="none" stroke="#afbdd1" stroke-width=".6" opacity=".25"/><path d="M109 78Q109 211 78 241 M1491 1054Q1491 921 1522 891" fill="none" stroke="#afbdd1" stroke-width=".6" opacity=".25"/><path d="M116 78Q116 218 78 248 M1484 1054Q1484 914 1522 884" fill="none" stroke="#afbdd1" stroke-width=".6" opacity=".25"/><path d="M123 78Q123 225 78 255 M1477 1054Q1477 907 1522 877" fill="none" stroke="#afbdd1" stroke-width=".6" opacity=".25"/><path d="M130 78Q130 232 78 262 M1470 1054Q1470 900 1522 870" fill="none" stroke="#afbdd1" stroke-width=".6" opacity=".25"/><path d="M137 78Q137 239 78 269 M1463 1054Q1463 893 1522 863" fill="none" stroke="#afbdd1" stroke-width=".6" opacity=".25"/><path d="M144 78Q144 246 78 276 M1456 1054Q1456 886 1522 856" fill="none" stroke="#afbdd1" stroke-width=".6" opacity=".25"/><path d="M151 78Q151 253 78 283 M1449 1054Q1449 879 1522 849" fill="none" stroke="#afbdd1" stroke-width=".6" opacity=".25"/><path d="M158 78Q158 260 78 290 M1442 1054Q1442 872 1522 842" fill="none" stroke="#afbdd1" stroke-width=".6" opacity=".25"/><path d="M165 78Q165 267 78 297 M1435 1054Q1435 865 1522 835" fill="none" stroke="#afbdd1" stroke-width=".6" opacity=".25"/><!-- Exact academy website mark and wordmark colours -->
<g transform="translate(475 126) scale(1.65)" fill="none" stroke="#6342ff" stroke-width="4.2" stroke-linecap="round"><path d="M27.8 6.8a7.2 7.2 0 0 0-10.2 0l-8.8 8.8a7.2 7.2 0 0 0 10.2 10.2l4.4-4.4" /><path d="M12.2 33.2a7.2 7.2 0 0 0 10.2 0l8.8-8.8A7.2 7.2 0 0 0 21 14.2l-4.4 4.4" /><path d="m14.8 25.2 10.4-10.4" /></g>
<text x="562" y="169" font-family="Georgia,serif" font-size="49" font-weight="600" fill="#11184b">Samkhya<tspan fill="#4f32ed">Academy</tspan></text>
<text x="564" y="194" font-family="Arial,sans-serif" font-size="15" fill="#52617b">A Samkhya Technologies Initiative</text>
<path d="M618 247H774 M826 247H982" stroke="#ba9964" stroke-width="1"/><path d="M793 247l7-7 7 7-7 7Z" fill="#b28a50"/>
<g transform="translate(645 335) scale(7.7)" fill="none" stroke="#334d78" stroke-width=".25" stroke-linecap="round" opacity=".025"><path d="M27.8 6.8a7.2 7.2 0 0 0-10.2 0l-8.8 8.8a7.2 7.2 0 0 0 10.2 10.2l4.4-4.4" /><path d="M12.2 33.2a7.2 7.2 0 0 0 10.2 0l8.8-8.8A7.2 7.2 0 0 0 21 14.2l-4.4 4.4" /><path d="m14.8 25.2 10.4-10.4" /></g><g text-anchor="middle">
<text x="800" y="328" font-family="Arial,sans-serif" font-size="16" letter-spacing="6" fill="#795a31">RECOGNISING COMMITMENT TO LEARNING</text>
<text x="800" y="411" font-family="Georgia,serif" font-size="72" fill="#152346">Certificate of Completion</text>
<text x="800" y="481" font-family="Arial,sans-serif" font-size="20" fill="#617087">This certificate is presented to</text>
<text x="800" y="577" font-family="Georgia,serif" font-size="72" font-style="italic" fill="#142345">Alex Example</text>
<path d="M425 607H1175" stroke="#c5b18f"/>
<text x="800" y="658" font-family="Arial,sans-serif" font-size="20" fill="#52617b">for completing the learning and project requirements of the</text>
<text x="800" y="713" font-family="Georgia,serif" font-size="35" fill="#16294e">AI Engineering Training Internship</text>
<text x="800" y="761" font-family="Arial,sans-serif" font-size="18" fill="#627087">Python · Full-stack foundations · Generative AI · Applied projects</text>
</g>
<g transform="translate(800 895)"><path d="M-29 42L-34 91-13 79 0 98 12 78 33 90 28 43" fill="#173151"/><path d="M-27 52L-31 80 M27 52L30 79" stroke="#c4a575" stroke-width="2"/><circle r="72" fill="#fffefa" stroke="#bc9a61" stroke-width="1.4"/><circle r="66" fill="none" stroke="#e0cfad"/><ellipse cx="-51.0" cy="29" rx="3" ry="7" transform="rotate(-35 -51.0 29)" fill="#b48e58"/><ellipse cx="-57.0" cy="19" rx="3" ry="7" transform="rotate(-40 -57.0 19)" fill="#b48e58"/><ellipse cx="-61.4" cy="9" rx="3" ry="7" transform="rotate(-45 -61.4 9)" fill="#b48e58"/><ellipse cx="-63.0" cy="-1" rx="3" ry="7" transform="rotate(-50 -63.0 -1)" fill="#b48e58"/><ellipse cx="-61.4" cy="-11" rx="3" ry="7" transform="rotate(-55 -61.4 -11)" fill="#b48e58"/><ellipse cx="-57.0" cy="-21" rx="3" ry="7" transform="rotate(-60 -57.0 -21)" fill="#b48e58"/><ellipse cx="-51.0" cy="-31" rx="3" ry="7" transform="rotate(-65 -51.0 -31)" fill="#b48e58"/><ellipse cx="51.0" cy="29" rx="3" ry="7" transform="rotate(35 51.0 29)" fill="#b48e58"/><ellipse cx="57.0" cy="19" rx="3" ry="7" transform="rotate(40 57.0 19)" fill="#b48e58"/><ellipse cx="61.4" cy="9" rx="3" ry="7" transform="rotate(45 61.4 9)" fill="#b48e58"/><ellipse cx="63.0" cy="-1" rx="3" ry="7" transform="rotate(50 63.0 -1)" fill="#b48e58"/><ellipse cx="61.4" cy="-11" rx="3" ry="7" transform="rotate(55 61.4 -11)" fill="#b48e58"/><ellipse cx="57.0" cy="-21" rx="3" ry="7" transform="rotate(60 57.0 -21)" fill="#b48e58"/><ellipse cx="51.0" cy="-31" rx="3" ry="7" transform="rotate(65 51.0 -31)" fill="#b48e58"/><circle r="42" fill="#f8f3e8" stroke="#d5bd93"/><g transform="translate(-21 -24) scale(1.07)" fill="none" stroke="#98703b" stroke-width="4.2" stroke-linecap="round"><path d="M27.8 6.8a7.2 7.2 0 0 0-10.2 0l-8.8 8.8a7.2 7.2 0 0 0 10.2 10.2l4.4-4.4" /><path d="M12.2 33.2a7.2 7.2 0 0 0 10.2 0l8.8-8.8A7.2 7.2 0 0 0 21 14.2l-4.4 4.4" /><path d="m14.8 25.2 10.4-10.4" /></g><text y="33" text-anchor="middle" font-family="Arial,sans-serif" font-size="6.5" letter-spacing="1.3" fill="#795a31">SAMKHYA ACADEMY</text></g><g text-anchor="middle" font-family="Arial,sans-serif"><path d="M235 919H535 M1065 919H1365" stroke="#94a0b1"/><text x="385" y="950" font-size="17" fill="#223654">Program Lead</text><text x="1215" y="950" font-size="17" fill="#223654">Authorised Signatory</text><text x="385" y="977" font-size="13" fill="#69758a">SamkhyaAcademy</text><text x="1215" y="977" font-size="13" fill="#69758a">SamkhyaAcademy</text><text x="800" y="1036" font-size="13" letter-spacing=".6" fill="#647086">Illustrative certificate only</text></g>
</svg>